<?xml version="1.0" encoding="utf-8"?>
<!-- Generator: Adobe Illustrator 24.0.0, SVG Export Plug-In . SVG Version: 6.00 Build 0)  -->
<svg version="1.1" id="Layer_1" xmlns="http://www.w3.org/2000/svg" xmlns:xlink="http://www.w3.org/1999/xlink" x="0px" y="0px"
	 viewBox="0 0 59.7 59.7" style="enable-background:new 0 0 59.7 59.7;" xml:space="preserve">
<style type="text/css">
	.st0{fill:#F4F4F4;}
	.st1{fill:#FFD473;}
	.st2{enable-background:new    ;}
</style>
<title>logo</title>
<path class="st0" d="M57.3,18.2C52.6,7.2,41.8,0,29.8,0C13.3,0,0,13.4,0,29.8c0,4,0.8,7.9,2.4,11.6c4.7,11,15.5,18.2,27.5,18.2
	c16.5,0,29.8-13.4,29.8-29.8C59.7,25.8,58.9,21.9,57.3,18.2z M38.7,49.8c-2.8,1.2-5.8,1.9-8.8,1.9c-1.2,0-2.5-0.1-3.7-0.3
	C16.4,49.7,9,41.6,8.1,31.7C8,31,8,30.4,8,29.8C8,17.8,17.8,8,29.8,8c1.2,0,2.5,0.1,3.7,0.3C43.3,10,50.7,18.1,51.6,28
	c0.1,0.6,0.1,1.2,0.1,1.8c0,3-0.6,6.1-1.9,8.8C47.6,43.6,43.6,47.6,38.7,49.8z"/>
<path class="st1" d="M27.6,38.2l17.7-17.7C40.1,12,29,9.2,20.5,14.4c-2.8,1.7-5.1,4.2-6.7,7.1H32L14.4,39.2l0.2,0.3
	c5.3,8.4,16.5,11,24.9,5.6c2.7-1.7,4.9-4.1,6.4-6.9C45.9,38.2,27.6,38.2,27.6,38.2z"/>
<g class="st2">
	<path class="st0" d="M384.7-174"/>
</g>
</svg>
