<?xml version="1.0" encoding="utf-8"?>
<!-- Generator: Adobe Illustrator 24.0.0, SVG Export Plug-In . SVG Version: 6.00 Build 0)  -->
<svg version="1.1" id="Layer_1" xmlns="http://www.w3.org/2000/svg" xmlns:xlink="http://www.w3.org/1999/xlink" x="0px" y="0px"
	 viewBox="0 0 403.7 59.7" style="enable-background:new 0 0 403.7 59.7;" xml:space="preserve">
<style type="text/css">
	.st0{fill:#F4F4F4;}
	.st1{fill:#FFD473;}
	.st2{enable-background:new    ;}
</style>
<title>logo</title>
<path class="st0" d="M-16,18.2C-20.7,7.2-31.5,0-43.5,0C-60,0-73.3,13.4-73.3,29.8c0,4,0.8,7.9,2.4,11.6c4.7,11,15.5,18.2,27.5,18.2
	c16.5,0,29.8-13.4,29.8-29.8C-13.6,25.8-14.4,21.9-16,18.2z M-34.6,49.8c-2.8,1.2-5.8,1.9-8.8,1.9c-1.2,0-2.5-0.1-3.7-0.3
	c-9.8-1.7-17.2-9.8-18.1-19.7c-0.1-0.7-0.1-1.3-0.1-1.9c0-12,9.8-21.8,21.8-21.8c1.2,0,2.5,0.1,3.7,0.3C-30,10-22.6,18.1-21.7,28
	c0.1,0.6,0.1,1.2,0.1,1.8c0,3-0.6,6.1-1.9,8.8C-25.7,43.6-29.7,47.6-34.6,49.8z"/>
<path class="st1" d="M-45.7,38.2L-28,20.5c-5.2-8.5-16.3-11.3-24.8-6.1c-2.8,1.7-5.1,4.2-6.7,7.1h18.2l-17.6,17.7l0.2,0.3
	c5.3,8.4,16.5,11,24.9,5.6c2.7-1.7,4.9-4.1,6.4-6.9C-27.4,38.2-45.7,38.2-45.7,38.2z"/>
<g class="st2">
	<path class="st0" d="M311.4-174"/>
</g>
<g>
	<path class="st0" d="M32.2,32.2c0,8.9-4.5,16.1-16.1,16.1C7.2,48.3,0,41.1,0,32.2s7.2-16.1,16.1-16.1S32.2,23.3,32.2,32.2z
		 M25.5,32.2c0-2.5-1-4.8-2.7-6.6c-1.8-1.8-4.1-2.7-6.6-2.7s-4.8,1-6.6,2.7c-1.9,1.8-2.9,4.1-2.9,6.6s1,4.8,2.7,6.6
		c1.8,1.7,4.1,2.7,6.6,2.7s4.8-1,6.6-2.7C24.5,37,25.5,34.7,25.5,32.2z"/>
	<path class="st0" d="M50.1,46.3c-1.5-0.6-2.8-1.5-3.9-2.5C42.6,40.4,43,36,43,35.5l6.6,0.1l0,0c0,0,0,1.8,0.8,2.9
		c1,1.4,2.7,2.2,5.3,2.2c4.3,0,6.2-1.1,6.2-2.9c0-1.9-2.4-3.1-6.4-3.6c-2.4-0.3-4.6-0.8-6.3-1.5c-1.6-0.7-3-1.6-4-2.7
		c-1.4-1.6-2.2-3.5-2.2-5.6c0-2.9,1.2-4.9,2.2-6c2.2-2.5,5.8-3.8,10.7-3.8c6.4,0,9.6,2.8,11.1,5.2c1.6,2.5,1.7,5.5,1.7,6h-6.6l0,0
		c0,0,0-1.4-0.7-2.4c-1-1.3-2.9-2.2-5.6-2.2c-2.8,0-6,0.7-6,2.8c0,2,2.1,3.2,6.4,3.7c4.8,0.5,8.3,2,10.4,4.5
		c1.4,1.6,2.1,3.6,2.1,5.6c0,1,1,3.6-1.1,5.9c-1.1,1.2-3.5,2.1-5.3,2.7c-1.8,0.6-4,0.9-6.7,0.9C53.6,47.2,51.8,46.9,50.1,46.3z"/>
	<path class="st0" d="M102.9,42.8H90.1l-2.3,4.4h-8.6L96,16l16.7,31.2h-8.6L102.9,42.8z M98.9,36.9l-2.8-5.5l-2.9,5.5H98.9z"/>
	<path class="st0" d="M156.5,16v31.2H150V29.7l-10.3,5.9l-9-5.9v17.4h-7.5V16l16.6,10.7L156.5,16z"/>
	<path class="st0" d="M190.7,42.8h-12.8l-2.3,4.4H167L183.9,16l16.7,31.2H192L190.7,42.8z M186.7,36.9l-2.8-5.5l-2.9,5.5H186.7z"/>
	<path class="st1" d="M235.3,24.4L219.6,41h15.7v6.2H211V41h1l15.7-16.6H211v-6.2h24.3L235.3,24.4L235.3,24.4z"/>
	<path class="st1" d="M254.1,18.4v28.7h-7.9V18.4H254.1z"/>
	<path class="st1" d="M278.3,25.3v21.8h-5.9V25.3h-8.5v-6.9h21.8v6.9H278.3z"/>
	<path class="st1" d="M325.8,33.4c0,8.2-6.6,14.8-14.8,14.8c-8.2,0-14.8-6.6-14.8-14.8s6.6-14.8,14.8-14.8
		C319.2,18.6,325.8,25.2,325.8,33.4z M319.6,33.4c0-2.3-0.9-4.5-2.5-6.1c-1.6-1.6-3.8-2.5-6.1-2.5c-2.3,0-4.5,0.9-6.1,2.5
		c-1.6,1.6-2.5,3.8-2.5,6.1s1.9,4.5,3.5,6.1c1.6,1.6,2.8,2.5,5.1,2.5c2.3,0,4.5-0.9,6.1-2.5C318.7,37.8,319.6,35.7,319.6,33.4z"/>
	<path class="st1" d="M365.6,33.4c0,8.2-6.6,14.8-14.8,14.8c-5.5,0-14.8-6.6-14.8-14.8s6.6-14.8,14.8-14.8
		C359,18.6,365.6,25.2,365.6,33.4z M359.4,33.4c0-2.3-0.9-4.5-2.5-6.1c-1.6-1.6-3.8-2.5-6.1-2.5c-2.3,0-4.5,0.9-6.1,2.5
		c-1.6,1.6-2.5,3.8-2.5,6.1s0.9,4.5,2.5,6.1c1.6,1.6,3.8,2.5,6.1,2.5c2.3,0,4.5-0.9,6.1-2.5C358.5,37.8,359.4,35.7,359.4,33.4z"/>
	<path class="st1" d="M402.1,18.4v28.7l-18.1-14l-1,14h-6.9V18.4l19.1,14.7V18.4H402.1z"/>
</g>
</svg>
